<svg xmlns="http://www.w3.org/2000/svg" xmlns:xlink="http://www.w3.org/1999/xlink" id="Layer_1" style="width: 64px; height: 64px; transform-origin: 50% 50%; transform: scaleX(1) scaleY(1) rotate(0deg);" version="1.1" viewBox="0 0 64 64" xml:space="preserve" preserveAspectRatio="xMidYMid meet"><path d="M48.14499,30.86005c-0.28998-0.41003-0.58002-0.81-0.85999-1.21002c1.31-0.48999,2.25-1.75,2.25-3.22003  c0-0.59998-0.16998-1.14996-0.42999-1.63995c1.35999-0.46002,2.34998-1.73999,2.34998-3.25c0-0.75-0.23999-1.42999-0.64001-1.98999  c0.96002-0.62006,1.61005-1.69,1.61005-2.91003c0-1.21997-0.65002-2.28998-1.61005-2.89996  c0.40002-0.57001,0.64001-1.25,0.64001-1.99005c0-1.89996-1.53998-3.44995-3.44-3.44995h-2.39996L47.10501,1.25  c0.04999-0.31-0.04004-0.63-0.23999-0.87L46.50497,0H32.93503c-0.31006,0-0.61005,0.14001-0.82001,0.38l-0.33002,0.44  l0.33997,1.60999h-1.50995c-0.71002,0-1.37,0.32001-1.81,0.87006l-6.49005,8.08997c-0.06,0.08002-0.14996,0.12-0.25,0.12h-3.87994  V9.75H5.58499v19.99005h12.60004v-2.04004h3.97998L27.30502,29.88h4.23999c-0.44,0.64001-0.89001,1.29999-1.37,1.98004  c-4.5,6.47998-9.60004,13.81995-9.60004,19.12c0,0.69,0.03003,1.29999,0.09003,1.87C21.33499,59.21002,26.785,64,33.33499,64  h12.35004c6.19995,0,11.44995-4.21997,12.47998-10.03998c0.15997-0.97998,0.25-1.97998,0.25-2.97998  C58.41501,45.40002,52.715,37.34003,48.14499,30.86005z M12.30502,25.28003c-1.13,0-2.04004-0.91998-2.04004-2.04999  c0-1.12,0.91003-2.04004,2.04004-2.04004s2.03998,0.92004,2.03998,2.04004C14.345,24.36005,13.43503,25.28003,12.30502,25.28003z   M39.49503,44.94c2.62,0,4.75995,2.14001,4.75995,4.77002c0,2.28003-1.62,4.19-3.75995,4.65002v1.88h-2v-1.88  c-2.15002-0.46002-3.77002-2.37-3.77002-4.65002h2c0,1.52002,1.23999,2.76001,2.77002,2.76001  c1.51996,0,2.75995-1.23999,2.75995-2.76001c0-1.53003-1.23999-2.77002-2.75995-2.77002c-2.63,0-4.77002-2.13995-4.77002-4.76001  c0-2.28998,1.62-4.19995,3.77002-4.65997v-1.88h2v1.88c2.13995,0.46002,3.75995,2.37,3.75995,4.65997h-2  c0-1.52997-1.23999-2.76996-2.75995-2.76996c-1.53003,0-2.77002,1.23999-2.77002,2.76996  C36.72501,43.70001,37.965,44.94,39.49503,44.94z M46.08499,27.88h-18.37l-5.15002-2.17999h-4.37994v-12.19h3.87994  c0.71002,0,1.37006-0.32001,1.81-0.87l6.49005-8.08997c0.06-0.07001,0.14996-0.12006,0.25-0.12006h1.92999l0.82001,3.87006H31.345v2  h16.66998c0.79999,0,1.44,0.64996,1.44,1.44995c0,0.79004-0.64001,1.44-1.44,1.44h-4.82001v2h5.78003  c0.79999,0,1.45001,0.65002,1.45001,1.45001s-0.65002,1.45001-1.45001,1.45001h-5.78003v2h4.82001  c0.79999,0,1.44,0.65002,1.44,1.45001c0,0.78998-0.64001,1.44-1.44,1.44h-4.82001v2h2.92999  c0.78003,0.02997,1.41003,0.65997,1.41003,1.44995C47.535,27.23004,46.88498,27.88,46.08499,27.88z" fill="#22C55E" style="fill:#22C55E;stroke:none" stroke="none" data-editor-stroke-width-attr="" data-editor-stroke-width-style=""/></svg>